<svg viewBox="0 0 64 48" xmlns="http://www.w3.org/2000/svg">
  <rect x="1" y="1" width="62" height="46" rx="2" fill="#FFFFFF" stroke="#C7CFDC" stroke-width="1.5"/>
  <rect x="1" y="1" width="62" height="7" rx="2" fill="#4A86E8"/>
  <rect x="4" y="10" width="56" height="4" fill="#E3E8F0"/>
  <rect x="4" y="16" width="56" height="17" fill="#FDF6EC" stroke="#EAD9B8" stroke-width="0.8"/>
  <rect x="7" y="19" width="10" height="2.4" rx="1" fill="#E0C48C"/>
  <rect x="20" y="19" width="36" height="2.4" rx="1" fill="#F1E4C8"/>
  <rect x="7" y="24" width="10" height="2.4" rx="1" fill="#E0C48C"/>
  <rect x="20" y="24" width="36" height="2.4" rx="1" fill="#F1E4C8"/>
  <rect x="7" y="29" width="10" height="2.4" rx="1" fill="#E0C48C"/>
  <rect x="20" y="29" width="36" height="2.4" rx="1" fill="#F1E4C8"/>
  <rect x="4" y="34" width="56" height="11" fill="#FFFFFF" stroke="#DCE1EA" stroke-width="0.8"/>
  <rect x="4" y="34" width="56" height="3" fill="#E3E8F0"/>
  <line x1="4" y1="39" x2="60" y2="39" stroke="#ECEFF4" stroke-width="1"/>
  <line x1="4" y1="42" x2="60" y2="42" stroke="#ECEFF4" stroke-width="1"/>
</svg>
