<svg viewBox="0 0 64 48" xmlns="http://www.w3.org/2000/svg">
  <rect x="1" y="1" width="62" height="46" rx="2" fill="#FFFFFF" stroke="#C7CFDC" stroke-width="1.5"/>
  <rect x="1" y="1" width="62" height="7" rx="2" fill="#4A86E8"/>
  <rect x="4" y="11" width="20" height="34" fill="#FFFFFF" stroke="#DCE1EA" stroke-width="0.8"/>
  <rect x="4" y="11" width="20" height="5" fill="#E3E8F0"/>
  <line x1="4" y1="21" x2="24" y2="21" stroke="#ECEFF4" stroke-width="1"/>
  <line x1="4" y1="27" x2="24" y2="27" stroke="#ECEFF4" stroke-width="1"/>
  <line x1="4" y1="33" x2="24" y2="33" stroke="#ECEFF4" stroke-width="1"/>
  <line x1="4" y1="39" x2="24" y2="39" stroke="#ECEFF4" stroke-width="1"/>
  <rect x="25.4" y="11" width="34.6" height="16" fill="#FDF6EC" stroke="#EAD9B8" stroke-width="0.8"/>
  <rect x="28" y="14" width="8" height="2.4" rx="1" fill="#E0C48C"/>
  <rect x="38" y="14" width="18" height="2.4" rx="1" fill="#F1E4C8"/>
  <rect x="28" y="19" width="8" height="2.4" rx="1" fill="#E0C48C"/>
  <rect x="38" y="19" width="18" height="2.4" rx="1" fill="#F1E4C8"/>
  <rect x="28" y="24" width="8" height="2.4" rx="1" fill="#E0C48C"/>
  <rect x="38" y="24" width="18" height="2.4" rx="1" fill="#F1E4C8"/>
  <rect x="25.4" y="28.4" width="34.6" height="16.6" fill="#FFFFFF" stroke="#DCE1EA" stroke-width="0.8"/>
  <rect x="25.4" y="28.4" width="34.6" height="4.5" fill="#E3E8F0"/>
  <line x1="25.4" y1="37" x2="60" y2="37" stroke="#ECEFF4" stroke-width="1"/>
  <line x1="25.4" y1="41.2" x2="60" y2="41.2" stroke="#ECEFF4" stroke-width="1"/>
</svg>
